<svg version="1.1" id="Uploaded to svgrepo.com" xmlns="http://www.w3.org/2000/svg" viewBox="0 0 32 32" xml:space="preserve"><style>.st0{fill:#0b1719}</style><path d="M31.293 7.293 24.707.707a.997.997 0 0 0-1.414 0L3.188 20.812a1.002 1.002 0 0 0-.258.444L.46 30.311a1 1 0 0 0 1.228 1.228l9.055-2.47c.168-.046.321-.135.444-.258L31.293 8.707a1 1 0 0 0 0-1.414zm-13.647 4.353-6 6c-1.123 1.123-2.219.74-2.825.36l9.197-9.197c.946 1.416-.221 2.685-.372 2.837zM4.477 23.184l4.338 4.338L2.85 29.15l1.627-5.966zm5.484 4.026-.034.01-5.147-5.147.009-.035 3.309-3.309c.503.355 1.196.664 1.967.664.727 0 1.521-.274 2.287-1.04l6-6c.75-.749 1.691-2.531.383-4.262l1.324-1.324 5.172 5.172L9.961 27.21zm15.978-15.978L20.767 6.06 24 2.828 29.172 8l-3.233 3.232z" style="fill:#111918"/></svg>