<svg viewBox="0 0 1024 1024" class="icon" xmlns="http://www.w3.org/2000/svg"><path d="M510.009 911.35c-1.627 0-3.956-.415-5.71-2.456-2.967-3.444-1.595-7.366-1.118-8.516l2.33-3.38c55.281-47.754 87.211-120.005 87.211-197.872 0-142.941-116.242-259.215-259.15-259.215-92.667 0-159.016 25.041-208.81 78.791a8.068 8.068 0 0 1-5.969 2.65 8.326 8.326 0 0 1-5.612-2.202c-1.946-1.85-2.329-4.371-2.267-6.19l.066-2.806-.32-1.019c1.245-219.342 180.265-397.405 400.145-397.405 220.648 0 400.145 179.307 400.145 399.7 0 218.127-177.71 397.307-396.157 399.443l-4.784.477z" fill="#FFF"/><path d="M315.198 921.496c-67.688 0-123.738-20.415-162.141-59.046-33.656-34.004-52.251-80.704-52.251-131.427 0-79.937 52.505-198.89 197.23-198.89 131.013 0 166.644 75.506 175.862 107.978 11.548 40.354 5.36 87.277-16.554 125.685l-27.53 48.167 39.652 38.823c1.306 1.274 2.201 3.093 2.551 5.23.448 2.777-.094 5.073-1.72 7.336-33.177 46.064-123.199 56.144-155.099 56.144z" fill="#F4CE73"/><path d="M927.283 511.43c0-229.421-186.8-416.033-416.478-416.033-229.611 0-416.478 186.612-416.478 416.034 0 .382.193.702.255 1.084-.189 6.827 2.169 13.65 7.53 18.629 9.953 9.185 25.456 8.614 34.641-1.34 46.447-50.146 108.97-73.56 196.82-73.56 133.913 0 242.817 108.97 242.817 242.882 0 73.048-29.794 140.802-81.917 185.844-1.66 1.466-2.87 3.318-4.018 5.233-.702 1.019-1.597 1.976-2.168 3.126-.066.19-.066.447-.127.637-3.574 8.359-2.555 18.246 3.763 25.582 5.87 6.828 14.737 9.251 23.032 7.657 227.758-2.234 412.328-187.76 412.328-415.774z" fill="#27323A"/><path d="M877.583 497.267h-132.38c-1.278-67.436-11.359-130.342-28.648-185.144h102.398c34.961 53.717 56.013 117.07 58.63 185.144zm-132.509 32.665h132.319c-3.38 66.731-24.437 128.873-58.95 181.633H716.3c17.034-53.782 27.115-115.412 28.774-181.633zm50.272-250.475h-90.21c-17.545-44.914-40.384-82.554-66.67-111.775 61.757 22.97 115.859 61.694 156.88 111.775zM527.138 145.225c11.103.447 22.01 1.405 32.858 2.81 43.957 20.35 82.299 67.116 109.541 131.423H527.138V145.225zm-140.74 21.244c-26.668 29.285-49.889 67.244-67.82 112.988h-92.251c41.726-50.973 96.975-90.21 160.07-112.988zM285.15 410.055c-53.528 5.677-98.951 21.18-137.294 46.636 7.973-52.633 26.922-101.696 54.802-144.569h104.501c-9.568 30.242-16.97 63.034-22.009 97.933zm209.323 45.806c-46.126-30.623-101.44-48.615-160.9-48.615-5.168 0-10.08.448-15.121.575 5.294-34.26 13.079-66.415 23.032-95.699h152.99v143.74zM354.115 279.457c27.624-64.754 66.225-111.456 109.672-131.744 10.143-1.277 20.35-2.042 30.686-2.49v134.234H354.115zm173.023 201.86V312.122H681.85c18.312 54.103 29.284 117.264 30.69 185.144H543.852a281.686 281.686 0 0 0-16.715-15.949zm43.767 48.615H712.41c-1.787 66.604-12.758 128.553-30.816 181.633H624.75c.193-4.144.637-8.227.637-12.439 0-63.099-20.288-121.409-54.482-169.194zm50.846 214.297h47.466c-24.306 56.975-57.226 100.55-95.059 123.644 24.755-36.365 41.021-78.536 47.593-123.644zm16.715 110.948c26.158-28.964 48.808-66.415 66.287-110.946h89.894c-40.896 49.699-94.807 88.106-156.18 110.946z" fill="#79CCBF"/><path d="M471.888 846.373c-7.274-5.294-17.482-3.636-22.777 3.702-24.688 34.259-100.866 45.296-133.913 45.296-60.607 0-110.244-17.736-143.611-51.359-28.771-29.029-44.656-69.158-44.656-112.988 0-83.703 59.969-172.764 171.106-172.764 80.832 0 134.36 31.642 150.758 89.06 15.502 54.23-7.402 118.477-52.123 146.29-20.226 12.57-31.137 13.08-36.046 12.25.51-1.212 1.273-2.168 1.594-3.508l36.365-165.748c2.871-13.269-5.488-26.285-18.694-29.219-13.206-2.87-26.285 5.484-29.157 18.691l-4.083 18.502c-12.887-20.798-31.581-35.791-54.867-40.446-53.143-10.463-105.52 35.599-119.24 104.884-7.144 36.3-1.655 70.305 15.44 95.953 13.4 19.968 33.368 33.43 56.272 37.96 29.856 5.87 58.437-4.465 80.447-25.583.385.32.957.382 1.404.637 2.937 5.743 7.465 10.975 13.59 14.676 12.952 7.846 36.365 12.25 74.263-11.292 56.396-35.154 85.553-115.542 66.222-183.041-9.633-33.88-46.763-112.732-182.146-112.732-132.382 0-203.771 105.841-203.771 205.43 0 52.508 19.265 100.803 54.165 136.02 39.619 39.874 97.227 60.991 166.767 60.991 32.792 0 125.62-10.59 160.392-58.888 5.295-7.337 3.635-17.545-3.7-22.774z" fill="#27323A"/><path d="M314.114 736.959c-7.72 38.917-33.11 63.288-60.352 57.928-10.208-2.041-18.887-7.974-25.074-17.224-9.825-14.676-12.697-35.664-8.039-59.142 7.973-40.256 36.749-71.2 61.629-66.288 20.543 4.021 34.07 30.434 34.07 62.142 0 7.336-.703 14.927-2.234 22.584z" fill="#FFF"/></svg>