<svg height="64px" width="64px" version="1.1" id="Layer_1" xmlns="http://www.w3.org/2000/svg" xmlns:xlink="http://www.w3.org/1999/xlink" viewBox="0 0 392.638 392.638" xml:space="preserve" fill="#000000"><g id="SVGRepo_bgCarrier" stroke-width="0"></g><g id="SVGRepo_tracerCarrier" stroke-linecap="round" stroke-linejoin="round"></g><g id="SVGRepo_iconCarrier"> <circle style="fill:#FFC10D;" cx="196.347" cy="196.352" r="174.028"></circle> <g> <path style="fill:#194F82;" d="M108.558,284.141c4.267,4.267,11.119,4.267,15.451,0l160.194-160.194 c4.267-4.267,4.267-11.119,0-15.451c-4.267-4.267-11.119-4.267-15.451,0L108.558,268.756 C104.291,273.022,104.291,279.875,108.558,284.141z"></path> <path style="fill:#194F82;" d="M365.721,26.978c-35.879-35.879-94.255-35.879-130.133,0l-71.176,71.176 c-4.267,4.267-4.267,11.119,0,15.451l24.63,24.63c4.267,4.267,11.119,4.267,15.451,0c4.267-4.267,4.267-11.119,0-15.451 l-16.873-16.937l63.418-63.418c27.345-27.345,71.952-27.345,99.297,0s27.345,71.952,0,99.297l-63.418,63.418l-16.937-16.937 c-4.267-4.267-11.119-4.267-15.451,0c-4.267,4.267-4.267,11.119,0,15.451l24.63,24.63c4.267,4.267,11.119,4.267,15.451,0 l71.176-71.176C401.6,121.232,401.6,62.921,365.721,26.978z"></path> <path style="fill:#194F82;" d="M203.588,254.469c-4.267-4.267-11.119-4.267-15.451,0c-4.267,4.267-4.267,11.119,0,15.451 l16.937,16.937l-63.418,63.418c-27.345,27.345-71.952,27.345-99.297,0c-27.345-27.345-27.345-71.952,0-99.297l63.418-63.418 l16.937,16.937c4.267,4.267,11.119,4.267,15.451,0c4.267-4.267,4.267-11.119,0-15.451l-24.63-24.63 c-4.267-4.267-11.119-4.267-15.451,0l-71.176,71.111c-35.879,35.879-35.879,94.255,0,130.133s94.255,35.879,130.133,0 l71.176-71.176c4.267-4.267,4.267-11.119,0-15.451L203.588,254.469z"></path> </g> </g></svg>