<svg viewBox="0 0 35 35" data-name="Layer 2" xmlns="http://www.w3.org/2000/svg"><path d="M27.137 34.75H7.862a4.8 4.8 0 0 1-4.79-4.791V15.614a4.8 4.8 0 0 1 4.79-4.791h19.275a4.8 4.8 0 0 1 4.791 4.791v14.345a4.8 4.8 0 0 1-4.791 4.791ZM7.862 13.323a2.292 2.292 0 0 0-2.29 2.291v14.345a2.292 2.292 0 0 0 2.29 2.291h19.275a2.293 2.293 0 0 0 2.291-2.291V15.614a2.293 2.293 0 0 0-2.291-2.291Z"/><path d="M25.537 13.323a1.25 1.25 0 0 1-1.25-1.25V8.608a5.409 5.409 0 0 0-1.935-4.082A7.253 7.253 0 0 0 17.5 2.75c-3.744 0-6.79 2.628-6.79 5.858v3.465a1.25 1.25 0 0 1-2.5 0V8.608C8.207 4 12.375.25 17.5.25a9.748 9.748 0 0 1 6.511 2.4 7.869 7.869 0 0 1 2.779 5.955v3.465a1.25 1.25 0 0 1-1.253 1.253ZM17.5 25.779a1.25 1.25 0 0 1-1.25-1.25V21.2a1.25 1.25 0 0 1 2.5 0v3.334a1.25 1.25 0 0 1-1.25 1.245Z"/></svg>