<svg height="34px" width="34px" version="1.1" id="Layer_1" xmlns="http://www.w3.org/2000/svg" xmlns:xlink="http://www.w3.org/1999/xlink" viewBox="0 0 503.607 503.607" xml:space="preserve" fill="#000000"><g id="SVGRepo_bgCarrier" stroke-width="0"></g><g id="SVGRepo_tracerCarrier" stroke-linecap="round" stroke-linejoin="round"></g><g id="SVGRepo_iconCarrier"> <g> <path style="fill:#CA3E49;" d="M251.803,16.787c-129.586,0-235.016,105.43-235.016,235.016S122.217,486.82,251.803,486.82 S486.82,381.39,486.82,251.803S381.39,16.787,251.803,16.787 M251.803,503.607C112.959,503.607,0,390.648,0,251.803 S112.959,0,251.803,0s251.803,112.959,251.803,251.803S390.648,503.607,251.803,503.607"></path> <path style="fill:#CA3E49;" d="M251.803,50.361c-111.07,0-201.443,90.372-201.443,201.443s90.372,201.443,201.443,201.443 s201.443-90.372,201.443-201.443S362.874,50.361,251.803,50.361 M251.803,470.033c-120.337,0-218.229-97.893-218.229-218.229 S131.466,33.574,251.803,33.574s218.23,97.893,218.23,218.229S372.14,470.033,251.803,470.033"></path> <path style="fill:#CA3E49;" d="M201.443,260.197H41.967c-4.642,0-8.393-3.752-8.393-8.393c0-4.642,3.752-8.393,8.393-8.393h159.475 c4.642,0,8.393,3.752,8.393,8.393C209.836,256.445,206.084,260.197,201.443,260.197"></path> <path style="fill:#CA3E49;" d="M461.639,260.197H302.164c-4.642,0-8.393-3.752-8.393-8.393c0-4.642,3.752-8.393,8.393-8.393 h159.475c4.642,0,8.393,3.752,8.393,8.393C470.033,256.445,466.281,260.197,461.639,260.197"></path> <path style="fill:#CA3E49;" d="M92.328,285.377c-4.642,0-8.393-3.752-8.393-8.393v-50.361c0-4.642,3.752-8.393,8.393-8.393 s8.393,3.752,8.393,8.393v50.361C100.721,281.625,96.969,285.377,92.328,285.377"></path> <path style="fill:#CA3E49;" d="M176.262,285.377c-4.642,0-8.393-3.752-8.393-8.393v-50.361c0-4.642,3.752-8.393,8.393-8.393 s8.393,3.752,8.393,8.393v50.361C184.656,281.625,180.904,285.377,176.262,285.377"></path> <path style="fill:#CA3E49;" d="M411.279,285.377c-4.642,0-8.393-3.752-8.393-8.393v-50.361c0-4.642,3.752-8.393,8.393-8.393 c4.642,0,8.393,3.752,8.393,8.393v50.361C419.672,281.625,415.92,285.377,411.279,285.377"></path> <path style="fill:#CA3E49;" d="M327.344,285.377c-4.642,0-8.393-3.752-8.393-8.393v-50.361c0-4.642,3.752-8.393,8.393-8.393 c4.642,0,8.393,3.752,8.393,8.393v50.361C335.738,281.625,331.986,285.377,327.344,285.377"></path> <path style="fill:#CA3E49;" d="M251.803,470.033c-4.642,0-8.393-3.752-8.393-8.393V302.164c0-4.642,3.752-8.393,8.393-8.393 c4.642,0,8.393,3.752,8.393,8.393v159.475C260.197,466.281,256.445,470.033,251.803,470.033"></path> <path style="fill:#CA3E49;" d="M251.803,209.836c-4.642,0-8.393-3.752-8.393-8.393V41.967c0-4.642,3.752-8.393,8.393-8.393 c4.642,0,8.393,3.752,8.393,8.393v159.475C260.197,206.084,256.445,209.836,251.803,209.836"></path> <path style="fill:#CA3E49;" d="M276.984,419.672h-50.361c-4.642,0-8.393-3.752-8.393-8.393c0-4.642,3.752-8.393,8.393-8.393h50.361 c4.642,0,8.393,3.752,8.393,8.393C285.377,415.92,281.625,419.672,276.984,419.672"></path> <path style="fill:#CA3E49;" d="M276.984,335.738h-50.361c-4.642,0-8.393-3.752-8.393-8.393c0-4.642,3.752-8.393,8.393-8.393h50.361 c4.642,0,8.393,3.752,8.393,8.393C285.377,331.986,281.625,335.738,276.984,335.738"></path> <path style="fill:#CA3E49;" d="M276.984,100.721h-50.361c-4.642,0-8.393-3.752-8.393-8.393c0-4.642,3.752-8.393,8.393-8.393h50.361 c4.642,0,8.393,3.752,8.393,8.393C285.377,96.969,281.625,100.721,276.984,100.721"></path> <path style="fill:#CA3E49;" d="M276.984,184.656h-50.361c-4.642,0-8.393-3.752-8.393-8.393c0-4.642,3.752-8.393,8.393-8.393h50.361 c4.642,0,8.393,3.752,8.393,8.393C285.377,180.904,281.625,184.656,276.984,184.656"></path> <path style="fill:#CA3E49;" d="M251.803,134.295c-64.797,0-117.508,52.711-117.508,117.508s52.711,117.508,117.508,117.508 s117.508-52.711,117.508-117.508S316.601,134.295,251.803,134.295 M251.803,386.098c-74.047,0-134.295-60.248-134.295-134.295 s60.248-134.295,134.295-134.295s134.295,60.248,134.295,134.295S325.85,386.098,251.803,386.098"></path> <path style="fill:#CA3E49;" d="M251.803,276.877c-4.642,0-8.393-3.752-8.393-8.393v-33.465c0-4.642,3.752-8.393,8.393-8.393 c4.642,0,8.393,3.752,8.393,8.393v33.465C260.197,273.125,256.445,276.877,251.803,276.877"></path> <path style="fill:#CA3E49;" d="M268.59,260.197h-33.574c-4.642,0-8.393-3.752-8.393-8.393c0-4.642,3.752-8.393,8.393-8.393h33.574 c4.642,0,8.393,3.752,8.393,8.393C276.984,256.445,273.232,260.197,268.59,260.197"></path> </g> </g></svg>