<svg height="64px" width="64px" version="1.1" id="Layer_1" xmlns="http://www.w3.org/2000/svg" xmlns:xlink="http://www.w3.org/1999/xlink" viewBox="0 0 512 512" xml:space="preserve" fill="#000000"><g id="SVGRepo_bgCarrier" stroke-width="0"></g><g id="SVGRepo_tracerCarrier" stroke-linecap="round" stroke-linejoin="round"></g><g id="SVGRepo_iconCarrier"> <path style="fill:#47821C;" d="M205.7,280.168c-10.609-14.292-27.61-23.556-46.777-23.556c-32.157,0-58.225,26.068-58.225,58.225 s26.068,58.225,58.225,58.225c6.532,0,12.805-1.091,18.667-3.076c7.006,3.978,15.099,6.261,23.731,6.261 c26.589,0,48.142-21.554,48.142-48.142C249.463,302.992,230.234,282.381,205.7,280.168z"></path> <path style="fill:#CC7400;" d="M249.116,504.383c-11.463,0-20.756-9.293-20.756-20.756V224.96c0-11.463,9.293-20.756,20.756-20.756 c11.463,0,20.756,9.293,20.756,20.756v258.668C269.872,495.09,260.579,504.383,249.116,504.383z"></path> <path style="fill:#AA6100;" d="M249.116,483.628V224.96c0-7.678,4.18-14.366,10.378-17.956c-3.055-1.77-6.593-2.799-10.378-2.799 c-11.463,0-20.756,9.293-20.756,20.756v258.668c0,11.463,9.293,20.756,20.756,20.756c3.785,0,7.323-1.029,10.378-2.799 C253.296,497.993,249.116,491.305,249.116,483.628z"></path> <path style="fill:#4E901E;" d="M427.138,180.739c2.625-7.326,4.064-15.214,4.064-23.442c0-38.384-31.116-69.5-69.5-69.5 s-69.5,31.116-69.5,69.5c0,4.413,0.429,8.723,1.216,12.908c-39.533,6.832-69.612,41.27-69.612,82.754 c0,46.397,37.612,84.009,84.009,84.009c41.35,0,75.698-29.884,82.686-69.227c7.468,4.806,16.349,7.607,25.891,7.607 c26.463,0,47.917-21.453,47.917-47.917C464.31,204.664,448.425,185.62,427.138,180.739z"></path> <g> <path style="fill:#47821C;" d="M395.606,161.187c0-27.088-9.382-52.662-25.838-72.908c-2.647-0.307-5.336-0.481-8.066-0.481 c-38.384,0-69.5,31.116-69.5,69.5c0,4.413,0.429,8.723,1.216,12.908c-39.533,6.832-69.612,41.27-69.612,82.754 c0,35.598,22.153,66.003,53.416,78.238c13.851-15.356,23.085-34.954,25.444-56.597 C355.599,264.014,395.606,217.186,395.606,161.187z"></path> <path style="fill:#47821C;" d="M322.42,312.12c-3.322,0-6.376-2.192-7.324-5.548c-1.141-4.046,1.214-8.252,5.261-9.393 c16.792-4.736,29.614-18.903,32.667-36.093c0.736-4.14,4.688-6.905,8.827-6.164c4.139,0.735,6.899,4.687,6.164,8.827 c-4.068,22.9-21.152,41.775-43.525,48.085C323.8,312.027,323.103,312.12,322.42,312.12z"></path> </g> <path style="fill:#5EAC24;" d="M202.197,193.637c-12.034,0-23.358,3.042-33.247,8.395c-10.242-7.629-22.939-12.147-36.693-12.147 c-0.52,0-1.032,0.026-1.549,0.04c-6.875-15.013-22.02-25.45-39.613-25.45c-24.056,0-43.557,19.501-43.557,43.557 c0,16.793,9.509,31.357,23.431,38.626c-0.118,1.557-0.198,3.125-0.198,4.713c0,33.958,27.528,61.486,61.486,61.486 c6.205,0,12.191-0.928,17.837-2.637c12.806,14.295,31.4,23.297,52.102,23.297c38.626,0,69.939-31.313,69.939-69.939 S240.824,193.637,202.197,193.637z"></path> <g> <path style="fill:#4E901E;" d="M123.289,272.2c-13.922-7.269-23.431-21.833-23.431-38.626c0-22.525,17.098-41.054,39.024-43.323 c-2.177-0.233-4.385-0.365-6.625-0.365c-0.52,0-1.032,0.026-1.549,0.04c-6.874-15.013-22.02-25.45-39.613-25.45 c-24.056,0-43.557,19.501-43.557,43.557c0,16.793,9.509,31.357,23.432,38.626c-0.119,1.557-0.198,3.125-0.198,4.713 c0,33.958,27.528,61.486,61.486,61.486c0.809,0,1.614-0.017,2.416-0.049c-7.279-10.103-11.581-22.493-11.581-35.896 C123.092,275.325,123.172,273.757,123.289,272.2z"></path> <path style="fill:#4E901E;" d="M202.197,193.637c-12.034,0-23.358,3.042-33.247,8.395c-10.243-7.629-22.939-12.147-36.693-12.147 c-0.52,0-1.032,0.026-1.549,0.04c-6.874-15.013-22.02-25.45-39.613-25.45c-4.554,0-8.945,0.701-13.071,1.999 c9.118,48.659,51.911,85.6,103.177,85.6c8.134,0,16.108-0.91,23.866-2.718c18.465,15.753,41.378,25.245,65.861,27.127 c0.781-4.184,1.208-8.494,1.208-12.904C272.137,224.95,240.824,193.637,202.197,193.637z"></path> </g> <path style="fill:#6DC82A;" d="M319.306,86.384c0.416-3.074,0.651-6.206,0.651-9.394c0-38.316-31.061-69.378-69.378-69.378 c-37.063,0-67.334,29.064-69.275,65.643c-0.035,0-0.068-0.003-0.103-0.003c-40.782,0-73.843,33.061-73.843,73.843 s33.061,73.843,73.843,73.843c11.608,0,22.586-2.686,32.359-7.459c15.479,19.623,39.452,32.234,66.384,32.234 c46.684,0,84.529-37.845,84.529-84.529C364.472,128.719,346.158,100.544,319.306,86.384z"></path> <g> <path style="fill:#5EAC24;" d="M217.423,115.54c0.035,0,0.068,0.002,0.103,0.003C219.467,78.964,249.738,49.9,286.8,49.9 c10.808,0,21.038,2.474,30.157,6.882c-8.653-28.458-35.093-49.17-66.379-49.17c-37.063,0-67.334,29.064-69.275,65.643 c-0.035,0-0.068-0.003-0.103-0.003c-40.782,0-73.843,33.061-73.843,73.843c0,28.585,16.252,53.357,40.01,65.63 c-2.444-7.34-3.788-15.182-3.788-23.343C143.58,148.601,176.64,115.54,217.423,115.54z"></path> <path style="fill:#5EAC24;" d="M279.944,222.877c-4.205,0-7.613-3.409-7.613-7.613s3.408-7.613,7.613-7.613 c25.621,0,46.465-20.844,46.465-46.465c0-4.204,3.408-7.613,7.613-7.613s7.613,3.409,7.613,7.613 C341.634,195.203,313.96,222.877,279.944,222.877z"></path> <circle style="fill:#5EAC24;" cx="175.083" cy="186.636" r="19.337"></circle> </g> <circle style="fill:#4E901E;" cx="204.184" cy="293.459" r="19.337"></circle> <g> <circle style="fill:#5EAC24;" cx="272.141" cy="112.426" r="19.337"></circle> <circle style="fill:#5EAC24;" cx="291.468" cy="154.215" r="7.374"></circle> <circle style="fill:#5EAC24;" cx="223.511" cy="158.011" r="7.374"></circle> <circle style="fill:#5EAC24;" cx="245.425" cy="195.771" r="7.374"></circle> </g> <circle style="fill:#4E901E;" cx="152.468" cy="269.686" r="7.374"></circle> <path style="fill:#6DC82A;" d="M458.026,504.383c3.34-5.365,5.275-11.694,5.275-18.48c0-17.292-12.537-31.648-29.016-34.496 c-3.249-26.602-25.901-47.212-53.38-47.212c-29.71,0-53.795,24.085-53.795,53.795c0,0.959,0.027,1.911,0.077,2.857 c-11.895,5.236-20.203,17.119-20.203,30.95c0,4.45,0.868,8.694,2.431,12.585L458.026,504.383L458.026,504.383z"></path> <g> <path style="fill:#5EAC24;" d="M361.838,477.09c-0.05-0.946-0.077-1.899-0.077-2.857c0-29.71,24.085-53.795,53.795-53.795 c1.345,0,2.674,0.064,3.993,0.16c-9.776-10.109-23.47-16.401-38.646-16.401c-29.71,0-53.795,24.085-53.795,53.795 c0,0.959,0.027,1.911,0.077,2.857c-11.895,5.236-20.203,17.119-20.203,30.95c0,4.45,0.868,8.694,2.431,12.586h32.44 C343.173,492.142,351.008,481.856,361.838,477.09z"></path> <circle style="fill:#5EAC24;" cx="400.219" cy="466.107" r="19.337"></circle> <circle style="fill:#5EAC24;" cx="439.724" cy="473.486" r="7.374"></circle> </g> <path style="fill:#6DC82A;" d="M189.403,504.074c1.44-3.705,2.24-7.731,2.24-11.946c0-18.215-14.767-32.982-32.982-32.982 c-1.624,0-3.22,0.123-4.781,0.349c-6.715-19.96-25.566-34.342-47.788-34.342c-27.848,0-50.422,22.574-50.422,50.422 c0,10.578,3.263,20.389,8.829,28.497h124.904V504.074z"></path> <g> <path style="fill:#5EAC24;" d="M136.91,441.4c2.248,0,4.46,0.154,6.63,0.44c-9.225-10.241-22.579-16.686-37.448-16.686 c-27.848,0-50.422,22.574-50.422,50.422c0,10.578,3.263,20.389,8.829,28.497h23.499c-0.981-3.923-1.51-8.024-1.51-12.252 C86.488,463.975,109.063,441.4,136.91,441.4z"></path> <circle style="fill:#5EAC24;" cx="116.282" cy="473.486" r="7.374"></circle> <circle style="fill:#5EAC24;" cx="151.991" cy="485.443" r="7.374"></circle> </g> <path d="M336.886,323.664c-2.642,1.086-5.379,2.032-8.134,2.813c-4.045,1.146-6.395,5.354-5.249,9.4c0.95,3.352,4,5.539,7.32,5.539 c0.687,0,1.386-0.093,2.08-0.29c3.309-0.938,6.597-2.075,9.771-3.38c3.889-1.599,5.745-6.048,4.146-9.936 C345.223,323.922,340.772,322.068,336.886,323.664z"></path> <path d="M440.961,445.195c-5.939-28.062-30.872-48.612-60.056-48.612c-33.279,0-60.461,26.613-61.385,59.674 c-12.388,7.415-20.152,20.865-20.152,35.541c0,5.311,1.002,10.5,2.979,15.423c1.159,2.885,3.955,4.776,7.065,4.776h148.612 c2.629,0,5.072-1.357,6.462-3.588c4.204-6.751,6.426-14.533,6.426-22.503C470.914,466.978,458.606,450.647,440.961,445.195z M453.443,496.77H315.069c-0.316-1.63-0.474-3.292-0.474-4.973c0-10.382,6.146-19.794,15.658-23.981 c2.896-1.274,4.701-4.206,4.535-7.365c-0.044-0.835-0.065-1.663-0.065-2.459c0-25.465,20.717-46.183,46.182-46.183 c23.302,0,43.002,17.421,45.824,40.521c0.406,3.333,2.95,6.006,6.26,6.578c13.153,2.274,22.699,13.627,22.699,26.995 C455.688,489.664,454.92,493.358,453.443,496.77z"></path> <path d="M158.915,451.535c-9.336-20.555-29.878-33.994-52.823-33.994c-4.205,0-7.613,3.409-7.613,7.613 c0,4.204,3.407,7.613,7.613,7.613c18.401,0,34.705,11.717,40.573,29.157c1.171,3.487,4.669,5.633,8.311,5.106 c1.233-0.18,2.474-0.27,3.686-0.27c13.988,0,25.369,11.381,25.369,25.369c0,1.462-0.124,2.909-0.37,4.333H68.72 c-3.567-6.361-5.436-13.507-5.436-20.884c0-10.46,3.812-20.53,10.734-28.353c2.785-3.149,2.492-7.96-0.657-10.746 c-3.149-2.785-7.96-2.491-10.746,0.657c-9.387,10.609-14.557,24.262-14.557,38.443c0,11.776,3.515,23.119,10.165,32.806 c1.42,2.068,3.768,3.304,6.277,3.304h124.905c3.14,0,5.956-1.927,7.095-4.853c1.83-4.705,2.758-9.653,2.758-14.706 C199.256,469.829,181.183,451.672,158.915,451.535z"></path> <path d="M307.892,329.36c-16.878,0-33.146-5.563-46.432-15.746c11.444-13.516,18.365-30.978,18.365-50.033 c0-3.441-0.232-6.869-0.681-10.26l-8.427-9.499l-7.219,8.033c0.731,3.846,1.101,7.775,1.101,11.727 c0,34.367-27.959,62.327-62.327,62.327c-17.688,0-34.612-7.568-46.431-20.764c-1.973-2.203-5.043-3.063-7.877-2.207 c-5.066,1.534-10.326,2.311-15.632,2.311c-29.706,0-53.872-24.168-53.872-53.873c0-1.242,0.056-2.557,0.176-4.138 c0.23-3.035-1.37-5.915-4.068-7.324c-11.93-6.229-19.342-18.443-19.342-31.877c0-19.82,16.125-35.945,35.945-35.945 c4.674,0,9.201,0.89,13.478,2.626l6.2-6.516l-10.311-10.466c-3.067-0.568-6.193-0.87-9.367-0.87c-28.215,0-51.17,22.955-51.17,51.17 c0,17.461,8.788,33.471,23.236,42.87c-0.001,0.157-0.002,0.314-0.002,0.469c0,23.669,11.967,44.59,30.163,57.047 c-0.205,2.126-0.311,4.274-0.311,6.413c0,36.303,29.535,65.838,65.838,65.838c6.069,0,12.078-0.834,17.908-2.484 c7.598,3.718,15.996,5.669,24.489,5.669c6.728,0,13.312-1.203,19.502-3.515v103.288c0,15.643,12.726,28.369,28.368,28.369 s28.368-12.727,28.368-28.369V339.408c9.66,3.387,19.897,5.178,30.332,5.178c4.205,0,7.613-3.409,7.613-7.613 C315.507,332.769,312.096,329.36,307.892,329.36z M220.822,363.621c-5.953,3.277-12.619,5.011-19.502,5.011 c-6.997,0-13.902-1.821-19.972-5.268c-1.888-1.072-4.145-1.287-6.198-0.592c-5.244,1.774-10.704,2.674-16.226,2.674 c-27.459,0-49.864-21.984-50.578-49.273c7.476,2.776,15.557,4.3,23.987,4.3c5.207,0,10.38-0.585,15.434-1.741 c14.469,14.29,34.077,22.401,54.506,22.401c6.394,0,12.603-0.793,18.55-2.258L220.822,363.621L220.822,363.621z M262.334,483.631 c0,7.247-5.896,13.144-13.143,13.144s-13.143-5.896-13.143-13.144V333.38c5.135-2.495,9.945-5.553,14.374-9.071 c3.769,3.039,7.756,5.749,11.913,8.134v151.188H262.334z"></path> <path d="M436.672,175.697c1.474-6,2.218-12.159,2.218-18.396c0-42.52-34.593-77.113-77.113-77.113 c-9.975,0-19.661,1.895-28.824,5.593l-0.004,0.048c-1.804-1.267-3.655-2.481-5.562-3.627c0.123-1.758,0.185-3.499,0.185-5.211 C327.572,34.538,293.034,0,250.581,0c-38.595,0-70.816,28.44-76.198,65.923c-41.735,3.477-74.635,38.555-74.635,81.173 c0,44.916,36.541,81.456,81.456,81.456c10.485,0,20.624-1.947,30.218-5.795c17.489,19.501,42.142,30.571,68.524,30.571 c50.808,0,92.141-41.335,92.141-92.141c0-24.255-9.449-46.985-25.728-63.881l0.089,0.017c4.974-1.269,10.103-1.908,15.33-1.908 c34.125,0,61.887,27.762,61.887,61.887c0,7.151-1.217,14.175-3.618,20.874c-0.734,2.048-0.556,4.314,0.488,6.222 c1.044,1.909,2.855,3.28,4.977,3.766c18.406,4.219,31.26,20.368,31.26,39.272c0,22.223-18.081,40.304-40.303,40.304 c-7.743,0-15.271-2.212-21.772-6.395c-2.142-1.379-4.833-1.594-7.165-0.576c-2.335,1.019-4.004,3.137-4.451,5.646 c-3.311,18.641-13.425,35.331-28.478,46.992c-3.323,2.575-3.93,7.357-1.355,10.68c1.5,1.937,3.749,2.951,6.023,2.951 c1.628,0,3.27-0.521,4.658-1.596c15.341-11.885,26.406-28.138,31.817-46.487c6.55,2.639,13.571,4.009,20.722,4.009 c30.619,0,55.529-24.911,55.529-55.53C471.997,204.136,457.821,183.873,436.672,175.697z M279.943,238.102 c-23.682,0-45.699-10.692-60.407-29.336c-1.483-1.88-3.707-2.898-5.981-2.898c-1.129,0-2.27,0.252-3.337,0.772 c-9.084,4.437-18.846,6.686-29.017,6.686c-36.52,0-66.23-29.711-66.23-66.23c0-36.484,29.654-66.173,66.126-66.23 c0.082,0.002,0.145,0.003,0.209,0.003c4.039,0,7.385-3.162,7.6-7.21c1.74-32.767,28.829-58.434,61.675-58.434 c34.058,0,61.765,27.708,61.765,61.765c0,2.708-0.196,5.525-0.582,8.37c-0.43,3.168,1.164,6.267,3.993,7.758 c25.355,13.369,41.104,39.452,41.104,68.068C356.86,203.598,322.355,238.102,279.943,238.102z"></path> </g></svg>